<svg style="width:20px; color:red;" viewBox="0 0 20 21" fill="none" xmlns="http://www.w3.org/2000/svg"><path d="M8.1997 19.995L8.16151 18.9916L8.15863 18.9917L8.1997 19.995ZM8.46009 19.9424L8.80301 20.8843L8.81244 20.8806L8.46009 19.9424ZM9.14689 17.999L10.1164 18.1941L10.1166 18.1933L9.14689 17.999ZM10.3852 15.1706L11.1205 15.8417L11.1275 15.8338L11.1343 15.8256L10.3852 15.1706ZM13.0037 11.2767L13.7856 11.8909L13.786 11.8904L13.0037 11.2767ZM14.2619 1.7509L14.1663 2.75035L14.1758 2.7513L14.1855 2.75206L14.2619 1.7509ZM12.9991 1.51648L13.2625 0.548635L13.2301 0.539537L13.1972 0.532699L12.9991 1.51648ZM3.51985 1.02265L3.51904 2.02681H3.52133L3.51985 1.02265ZM3.26166 3.26126V4.26542C3.76296 4.26542 4.18488 3.88419 4.24335 3.37838C4.30182 2.87259 3.97833 2.40242 3.49066 2.28442L3.26166 3.26126ZM2.61617 3.26126V2.2571H2.61524L2.61617 3.26126ZM2.11254 6.27631L2.37158 7.24537C2.78908 7.1302 3.08434 6.75258 3.10031 6.31338C3.11628 5.87418 2.84926 5.47546 2.44127 5.3293L2.11254 6.27631ZM2.23706 9.29846L2.53556 10.2557C2.96832 10.1165 3.25206 9.69561 3.22354 9.23537C3.19502 8.7751 2.86156 8.39374 2.41503 8.31071L2.23706 9.29846ZM2.72172 12.5061L2.72131 13.5102H2.72172V12.5061ZM7.02345 12.5061L7.09912 11.5048L7.06134 11.5019H7.02345V12.5061ZM7.2184 14.3561L6.29231 14.0052L6.28822 14.0162L6.28439 14.0275L7.2184 14.3561ZM7.10107 19.4495L6.40272 20.1602L6.41657 20.1742L6.43095 20.1877L7.10107 19.4495ZM8.23788 20.9985C8.43103 20.9908 8.62174 20.9523 8.80299 20.8842L8.11719 19.0006C8.13136 18.9953 8.14632 18.9922 8.16151 18.9916L8.23788 20.9985ZM8.81244 20.8806C9.00041 20.8078 9.21331 20.6864 9.39961 20.4652C9.56567 20.2681 9.66293 20.0472 9.72985 19.8566C9.85607 19.4969 9.96786 18.9561 10.1164 18.1941L8.1773 17.8038C8.01823 18.6193 7.93422 18.9929 7.86786 19.1819C7.83841 19.2658 7.84013 19.2277 7.89779 19.1593C7.97574 19.0668 8.06742 19.0199 8.10774 19.0042L8.81244 20.8806ZM10.1166 18.1933C10.272 17.3931 10.3747 17.0031 10.4999 16.718C10.6126 16.4616 10.763 16.246 11.1205 15.8417L9.64988 14.4995C9.24799 14.954 8.93397 15.3551 8.6948 15.8994C8.46819 16.4151 8.33145 17.0098 8.17713 17.8046L10.1166 18.1933ZM11.1343 15.8256C11.9009 14.9209 12.2997 14.2738 12.65 13.6682C12.9892 13.0818 13.253 12.5905 13.7856 11.8909L12.2217 10.6624C11.5973 11.4827 11.2684 12.0928 10.9456 12.6507C10.6341 13.1893 10.3022 13.7292 9.63605 14.5156L11.1343 15.8256ZM13.786 11.8904C13.8673 11.7834 14.13 11.6027 14.6405 11.424C15.1066 11.2608 15.6152 11.1535 16 11.079L15.6305 9.10612C15.2317 9.18319 14.6051 9.31209 13.9964 9.5252C13.4323 9.72272 12.6809 10.0583 12.2213 10.6628L13.786 11.8904ZM15.8608 0.798019C15.482 0.780255 14.5991 0.770264 14.3382 0.749738L14.1855 2.75206C14.4515 2.773 15.5764 2.79514 15.7697 2.8042L15.8608 0.798019ZM14.3575 0.751446C14.052 0.721271 13.5395 0.626458 13.2625 0.548635L12.7356 2.48433C13.1303 2.59518 13.7556 2.70977 14.1663 2.75035L14.3575 0.751446ZM13.1972 0.532699C9.96005 -0.140093 6.80401 0.0135059 3.51838 0.0184915L3.52133 2.02681C6.93481 2.02163 9.81663 1.88002 12.8009 2.50026L13.1972 0.532699ZM3.52066 0.0184895C3.00451 0.0180597 2.50664 0.210855 2.12157 0.55951L3.43689 2.05878C3.45995 2.03791 3.48921 2.02679 3.51904 2.02681L3.52066 0.0184895ZM2.12157 0.55951C1.73658 0.908095 1.4912 1.38808 1.43124 1.90802L3.39469 2.14174C3.39844 2.10915 3.41375 2.07973 3.43689 2.05878L2.12157 0.55951ZM1.43124 1.90802C1.37128 2.42792 1.50076 2.95244 1.79563 3.38201L3.41717 2.23324C3.39911 2.20694 3.39092 2.17434 3.39469 2.14174L1.43124 1.90802ZM1.79563 3.38201C2.09056 3.81166 2.53061 4.11663 3.03265 4.2381L3.49066 2.28442C3.46149 2.27736 3.43516 2.25947 3.41717 2.23324L1.79563 3.38201ZM3.26166 2.2571H2.61617V4.26542H3.26166V2.2571ZM2.61524 2.2571C2.0219 2.25766 1.44829 2.47202 0.995788 2.86161L2.27391 4.39373C2.37027 4.31076 2.49186 4.26554 2.61709 4.26542L2.61524 2.2571ZM0.995788 2.86161C0.54335 3.25114 0.241209 3.79064 0.142031 4.38439L2.09105 4.72039C2.11243 4.59236 2.17747 4.47676 2.27391 4.39373L0.995788 2.86161ZM0.142031 4.38439C0.0428571 4.97813 0.152876 5.58862 0.452997 6.10807L2.15788 5.09145C2.09346 4.97994 2.06966 4.84846 2.09105 4.72039L0.142031 4.38439ZM0.452997 6.10807C0.753146 6.62758 1.22435 7.02288 1.78383 7.22331L2.44127 5.3293C2.32284 5.28687 2.22227 5.2029 2.15788 5.09145L0.452997 6.10807ZM1.85351 5.30724C1.30321 5.45906 0.820538 5.79686 0.48436 6.26448L2.0808 7.44898C2.15267 7.34898 2.25535 7.27744 2.37158 7.24537L1.85351 5.30724ZM0.48436 6.26448C0.148229 6.73203 -0.0216207 7.30174 0.0022046 7.88006L1.97736 7.79607C1.97222 7.67143 2.00887 7.54902 2.0808 7.44898L0.48436 6.26448ZM0.0022046 7.88006C0.0260309 8.45839 0.242156 9.0117 0.615684 9.44905L2.10885 8.13287C2.02906 8.03945 1.98249 7.92072 1.97736 7.79607L0.0022046 7.88006ZM0.615684 9.44905C0.989254 9.8864 1.49815 10.1819 2.05909 10.2863L2.41503 8.31071C2.29665 8.2887 2.18858 8.22623 2.10885 8.13287L0.615684 9.44905ZM1.93856 8.34118C1.34604 8.53187 0.840751 8.93205 0.513519 9.46857L2.19395 10.5264C2.2729 10.3969 2.39427 10.3012 2.53556 10.2557L1.93856 8.34118ZM0.513519 9.46857C0.186326 10.005 0.0584991 10.6426 0.152736 11.2663L2.10672 10.9617C2.08386 10.8103 2.11495 10.6559 2.19395 10.5264L0.513519 9.46857ZM0.152736 11.2663C0.246977 11.89 0.557218 12.4594 1.02814 12.8712L2.31776 11.3491C2.20472 11.2502 2.12957 11.1129 2.10672 10.9617L0.152736 11.2663ZM1.02814 12.8712C1.49914 13.2831 2.0997 13.5099 2.72131 13.5102L2.72213 11.5019C2.5742 11.5018 2.43075 11.4479 2.31776 11.3491L1.02814 12.8712ZM2.72172 13.5102H7.02345V11.5019H2.72172V13.5102ZM6.94778 13.5072C7.00412 13.5116 7.04506 13.5163 7.074 13.5206C7.10345 13.525 7.11388 13.5279 7.1109 13.5271C7.10828 13.5264 7.08235 13.5194 7.0431 13.5003C7.00237 13.4804 6.94395 13.4459 6.88214 13.3891C6.73925 13.2579 6.67699 13.1014 6.65443 12.9995C6.63947 12.9318 6.64418 12.8923 6.64418 12.97H8.62106C8.62106 12.8886 8.6578 12.3126 8.20792 11.8993C8.0062 11.7141 7.78062 11.6295 7.6146 11.585C7.44675 11.5402 7.26874 11.5181 7.09912 11.5048L6.94778 13.5072ZM6.64418 12.97C6.64418 12.8983 6.65355 12.8545 6.6508 12.8704C6.65007 12.8745 6.64691 12.891 6.63932 12.9228C6.62429 12.9858 6.5996 13.0767 6.56516 13.192C6.49674 13.4209 6.39995 13.7121 6.29231 14.0052L8.14448 14.7071C8.26471 14.3797 8.37503 14.049 8.45676 13.7755C8.49739 13.6396 8.53353 13.5092 8.56057 13.3959C8.57853 13.3206 8.62106 13.143 8.62106 12.97H6.64418ZM6.28439 14.0275C6.01333 14.8225 5.65508 15.8975 5.53402 16.9452C5.41531 17.9724 5.49415 19.2388 6.40272 20.1602L7.79942 18.7389C7.53953 18.4753 7.40257 17.9999 7.49741 17.1792C7.58989 16.3789 7.87454 15.4998 8.15239 14.6848L6.28439 14.0275ZM6.43095 20.1877C6.81507 20.5476 7.4482 21.0318 8.24078 20.9984L8.15863 18.9917C8.19159 18.9903 8.17658 19.0021 8.09698 18.9599C8.01585 18.9169 7.90652 18.8382 7.77119 18.7114L6.43095 20.1877Z" fill="currentColor"></path><path d="M15 1C15 0.447715 15.4477 0 16 0H19C19.5523 0 20 0.447715 20 1V11C20 11.5523 19.5523 12 19 12H16C15.4477 12 15 11.5523 15 11V1Z" fill="currentColor"></path>
<path d="M8.1997 19.995L8.16151 18.9916L8.15863 18.9917L8.1997 19.995ZM8.46009 19.9424L8.80301 20.8843L8.81244 20.8806L8.46009 19.9424ZM9.14689 17.999L10.1164 18.1941L10.1166 18.1933L9.14689 17.999ZM10.3852 15.1706L11.1205 15.8417L11.1275 15.8338L11.1343 15.8256L10.3852 15.1706ZM13.0037 11.2767L13.7856 11.8909L13.786 11.8904L13.0037 11.2767ZM14.2619 1.7509L14.1663 2.75035L14.1758 2.7513L14.1855 2.75206L14.2619 1.7509ZM12.9991 1.51648L13.2625 0.548635L13.2301 0.539537L13.1972 0.532699L12.9991 1.51648ZM3.51985 1.02265L3.51904 2.02681H3.52133L3.51985 1.02265ZM3.26166 3.26126V4.26542C3.76296 4.26542 4.18488 3.88419 4.24335 3.37838C4.30182 2.87259 3.97833 2.40242 3.49066 2.28442L3.26166 3.26126ZM2.61617 3.26126V2.2571H2.61524L2.61617 3.26126ZM2.11254 6.27631L2.37158 7.24537C2.78908 7.1302 3.08434 6.75258 3.10031 6.31338C3.11628 5.87418 2.84926 5.47546 2.44127 5.3293L2.11254 6.27631ZM2.23706 9.29846L2.53556 10.2557C2.96832 10.1165 3.25206 9.69561 3.22354 9.23537C3.19502 8.7751 2.86156 8.39374 2.41503 8.31071L2.23706 9.29846ZM2.72172 12.5061L2.72131 13.5102H2.72172V12.5061ZM7.02345 12.5061L7.09912 11.5048L7.06134 11.5019H7.02345V12.5061ZM7.2184 14.3561L6.29231 14.0052L6.28822 14.0162L6.28439 14.0275L7.2184 14.3561ZM7.10107 19.4495L6.40272 20.1602L6.41657 20.1742L6.43095 20.1877L7.10107 19.4495ZM8.23788 20.9985C8.43103 20.9908 8.62174 20.9523 8.80299 20.8842L8.11719 19.0006C8.13136 18.9953 8.14632 18.9922 8.16151 18.9916L8.23788 20.9985ZM8.81244 20.8806C9.00041 20.8078 9.21331 20.6864 9.39961 20.4652C9.56567 20.2681 9.66293 20.0472 9.72985 19.8566C9.85607 19.4969 9.96786 18.9561 10.1164 18.1941L8.1773 17.8038C8.01823 18.6193 7.93422 18.9929 7.86786 19.1819C7.83841 19.2658 7.84013 19.2277 7.89779 19.1593C7.97574 19.0668 8.06742 19.0199 8.10774 19.0042L8.81244 20.8806ZM10.1166 18.1933C10.272 17.3931 10.3747 17.0031 10.4999 16.718C10.6126 16.4616 10.763 16.246 11.1205 15.8417L9.64988 14.4995C9.24799 14.954 8.93397 15.3551 8.6948 15.8994C8.46819 16.4151 8.33145 17.0098 8.17713 17.8046L10.1166 18.1933ZM11.1343 15.8256C11.9009 14.9209 12.2997 14.2738 12.65 13.6682C12.9892 13.0818 13.253 12.5905 13.7856 11.8909L12.2217 10.6624C11.5973 11.4827 11.2684 12.0928 10.9456 12.6507C10.6341 13.1893 10.3022 13.7292 9.63605 14.5156L11.1343 15.8256ZM13.786 11.8904C13.8673 11.7834 14.13 11.6027 14.6405 11.424C15.1066 11.2608 15.6152 11.1535 16 11.079L15.6305 9.10612C15.2317 9.18319 14.6051 9.31209 13.9964 9.5252C13.4323 9.72272 12.6809 10.0583 12.2213 10.6628L13.786 11.8904ZM15.8608 0.798019C15.482 0.780255 14.5991 0.770264 14.3382 0.749738L14.1855 2.75206C14.4515 2.773 15.5764 2.79514 15.7697 2.8042L15.8608 0.798019ZM14.3575 0.751446C14.052 0.721271 13.5395 0.626458 13.2625 0.548635L12.7356 2.48433C13.1303 2.59518 13.7556 2.70977 14.1663 2.75035L14.3575 0.751446ZM13.1972 0.532699C9.96005 -0.140093 6.80401 0.0135059 3.51838 0.0184915L3.52133 2.02681C6.93481 2.02163 9.81663 1.88002 12.8009 2.50026L13.1972 0.532699ZM3.52066 0.0184895C3.00451 0.0180597 2.50664 0.210855 2.12157 0.55951L3.43689 2.05878C3.45995 2.03791 3.48921 2.02679 3.51904 2.02681L3.52066 0.0184895ZM2.12157 0.55951C1.73658 0.908095 1.4912 1.38808 1.43124 1.90802L3.39469 2.14174C3.39844 2.10915 3.41375 2.07973 3.43689 2.05878L2.12157 0.55951ZM1.43124 1.90802C1.37128 2.42792 1.50076 2.95244 1.79563 3.38201L3.41717 2.23324C3.39911 2.20694 3.39092 2.17434 3.39469 2.14174L1.43124 1.90802ZM1.79563 3.38201C2.09056 3.81166 2.53061 4.11663 3.03265 4.2381L3.49066 2.28442C3.46149 2.27736 3.43516 2.25947 3.41717 2.23324L1.79563 3.38201ZM3.26166 2.2571H2.61617V4.26542H3.26166V2.2571ZM2.61524 2.2571C2.0219 2.25766 1.44829 2.47202 0.995788 2.86161L2.27391 4.39373C2.37027 4.31076 2.49186 4.26554 2.61709 4.26542L2.61524 2.2571ZM0.995788 2.86161C0.54335 3.25114 0.241209 3.79064 0.142031 4.38439L2.09105 4.72039C2.11243 4.59236 2.17747 4.47676 2.27391 4.39373L0.995788 2.86161ZM0.142031 4.38439C0.0428571 4.97813 0.152876 5.58862 0.452997 6.10807L2.15788 5.09145C2.09346 4.97994 2.06966 4.84846 2.09105 4.72039L0.142031 4.38439ZM0.452997 6.10807C0.753146 6.62758 1.22435 7.02288 1.78383 7.22331L2.44127 5.3293C2.32284 5.28687 2.22227 5.2029 2.15788 5.09145L0.452997 6.10807ZM1.85351 5.30724C1.30321 5.45906 0.820538 5.79686 0.48436 6.26448L2.0808 7.44898C2.15267 7.34898 2.25535 7.27744 2.37158 7.24537L1.85351 5.30724ZM0.48436 6.26448C0.148229 6.73203 -0.0216207 7.30174 0.0022046 7.88006L1.97736 7.79607C1.97222 7.67143 2.00887 7.54902 2.0808 7.44898L0.48436 6.26448ZM0.0022046 7.88006C0.0260309 8.45839 0.242156 9.0117 0.615684 9.44905L2.10885 8.13287C2.02906 8.03945 1.98249 7.92072 1.97736 7.79607L0.0022046 7.88006ZM0.615684 9.44905C0.989254 9.8864 1.49815 10.1819 2.05909 10.2863L2.41503 8.31071C2.29665 8.2887 2.18858 8.22623 2.10885 8.13287L0.615684 9.44905ZM1.93856 8.34118C1.34604 8.53187 0.840751 8.93205 0.513519 9.46857L2.19395 10.5264C2.2729 10.3969 2.39427 10.3012 2.53556 10.2557L1.93856 8.34118ZM0.513519 9.46857C0.186326 10.005 0.0584991 10.6426 0.152736 11.2663L2.10672 10.9617C2.08386 10.8103 2.11495 10.6559 2.19395 10.5264L0.513519 9.46857ZM0.152736 11.2663C0.246977 11.89 0.557218 12.4594 1.02814 12.8712L2.31776 11.3491C2.20472 11.2502 2.12957 11.1129 2.10672 10.9617L0.152736 11.2663ZM1.02814 12.8712C1.49914 13.2831 2.0997 13.5099 2.72131 13.5102L2.72213 11.5019C2.5742 11.5018 2.43075 11.4479 2.31776 11.3491L1.02814 12.8712ZM2.72172 13.5102H7.02345V11.5019H2.72172V13.5102ZM6.94778 13.5072C7.00412 13.5116 7.04506 13.5163 7.074 13.5206C7.10345 13.525 7.11388 13.5279 7.1109 13.5271C7.10828 13.5264 7.08235 13.5194 7.0431 13.5003C7.00237 13.4804 6.94395 13.4459 6.88214 13.3891C6.73925 13.2579 6.67699 13.1014 6.65443 12.9995C6.63947 12.9318 6.64418 12.8923 6.64418 12.97H8.62106C8.62106 12.8886 8.6578 12.3126 8.20792 11.8993C8.0062 11.7141 7.78062 11.6295 7.6146 11.585C7.44675 11.5402 7.26874 11.5181 7.09912 11.5048L6.94778 13.5072ZM6.64418 12.97C6.64418 12.8983 6.65355 12.8545 6.6508 12.8704C6.65007 12.8745 6.64691 12.891 6.63932 12.9228C6.62429 12.9858 6.5996 13.0767 6.56516 13.192C6.49674 13.4209 6.39995 13.7121 6.29231 14.0052L8.14448 14.7071C8.26471 14.3797 8.37503 14.049 8.45676 13.7755C8.49739 13.6396 8.53353 13.5092 8.56057 13.3959C8.57853 13.3206 8.62106 13.143 8.62106 12.97H6.64418ZM6.28439 14.0275C6.01333 14.8225 5.65508 15.8975 5.53402 16.9452C5.41531 17.9724 5.49415 19.2388 6.40272 20.1602L7.79942 18.7389C7.53953 18.4753 7.40257 17.9999 7.49741 17.1792C7.58989 16.3789 7.87454 15.4998 8.15239 14.6848L6.28439 14.0275ZM6.43095 20.1877C6.81507 20.5476 7.4482 21.0318 8.24078 20.9984L8.15863 18.9917C8.19159 18.9903 8.17658 19.0021 8.09698 18.9599C8.01585 18.9169 7.90652 18.8382 7.77119 18.7114L6.43095 20.1877Z" fill="currentColor"></path>
<path d="M15 1C15 0.447715 15.4477 0 16 0H19C19.5523 0 20 0.447715 20 1V11C20 11.5523 19.5523 12 19 12H16C15.4477 12 15 11.5523 15 11V1Z" fill="currentColor"></path>
</svg>