<svg style="width:20px; color:red;" fill="none" xmlns="http://www.w3.org/2000/svg" viewBox="0 0 20 20">
<path d="M4.58333 7.08337C2.05317 7.08613 0.00275567 9.13654 0 11.6667V14.5834C0 14.8135 0.186548 15 0.416667 15H1.925C2.03324 15.0001 2.12341 15.083 2.1325 15.1909L2.50167 19.6184C2.5199 19.8347 2.70122 20.0008 2.91833 20H6.25167C6.46878 20.0008 6.6501 19.8347 6.66833 19.6184L7.0375 15.1909C7.04659 15.083 7.13676 15.0001 7.245 15H8.75333C8.98345 15 9.17 14.8135 9.17 14.5834V11.6667C9.16724 9.13524 7.1148 7.08429 4.58333 7.08337Z" fill="currentColor"></path>
<path d="M4.58329 6.24996C6.19412 6.24996 7.49996 4.94412 7.49996 3.33329C7.49996 1.72246 6.19412 0.416626 4.58329 0.416626C2.97246 0.416626 1.66663 1.72246 1.66663 3.33329C1.66663 4.94412 2.97246 6.24996 4.58329 6.24996Z" fill="currentColor"></path>
<path d="M19.8166 1.38089C19.7301 1.29881 19.6215 1.24378 19.5041 1.22255C19.1904 1.08157 18.8223 1.14777 18.5774 1.38922L14.7308 5.23672C14.6492 5.31787 14.5174 5.31787 14.4358 5.23672L13.4533 4.25422C13.1263 3.93841 12.6065 3.94293 12.2851 4.26437C11.9636 4.58582 11.9591 5.10557 12.2749 5.43255L13.5891 6.75005C14.1387 7.29781 15.0278 7.29781 15.5774 6.75005L19.7558 2.57172C19.9284 2.3952 20.0122 2.15032 19.9841 1.90505C20.0145 1.71366 19.9523 1.51921 19.8166 1.38089Z" fill="currentColor"></path>
<path d="M19.2075 5.99167C18.9965 5.92542 18.7677 5.94581 18.5717 6.04836C18.3757 6.1509 18.2285 6.32717 18.1625 6.53833C17.587 8.37443 15.7152 9.47696 13.8303 9.09009C11.9454 8.70323 10.6592 6.95254 10.8534 5.03818C11.0476 3.12382 12.6592 1.6671 14.5834 1.66667C15.0436 1.66667 15.4167 1.29357 15.4167 0.833334C15.4167 0.373097 15.0436 5.11673e-07 14.5834 5.11673e-07C11.8034 -0.00119773 9.47385 2.10228 9.19224 4.86795C8.91062 7.63362 10.7684 10.1635 13.4915 10.7226C16.2147 11.2818 18.919 9.68869 19.75 7.03583C19.8878 6.59775 19.6452 6.13079 19.2075 5.99167Z" fill="currentColor"></path>
<path d="M4.58333 7.08337C2.05317 7.08613 0.00275567 9.13654 0 11.6667V14.5834C0 14.8135 0.186548 15 0.416667 15H1.925C2.03324 15.0001 2.12341 15.083 2.1325 15.1909L2.50167 19.6184C2.5199 19.8347 2.70122 20.0008 2.91833 20H6.25167C6.46878 20.0008 6.6501 19.8347 6.66833 19.6184L7.0375 15.1909C7.04659 15.083 7.13676 15.0001 7.245 15H8.75333C8.98345 15 9.17 14.8135 9.17 14.5834V11.6667C9.16724 9.13524 7.1148 7.08429 4.58333 7.08337Z" fill="currentColor"></path>
<path d="M4.58329 6.24996C6.19412 6.24996 7.49996 4.94412 7.49996 3.33329C7.49996 1.72246 6.19412 0.416626 4.58329 0.416626C2.97246 0.416626 1.66663 1.72246 1.66663 3.33329C1.66663 4.94412 2.97246 6.24996 4.58329 6.24996Z" fill="currentColor"></path>
<path d="M19.8166 1.38089C19.7301 1.29881 19.6215 1.24378 19.5041 1.22255C19.1904 1.08157 18.8223 1.14777 18.5774 1.38922L14.7308 5.23672C14.6492 5.31787 14.5174 5.31787 14.4358 5.23672L13.4533 4.25422C13.1263 3.93841 12.6065 3.94293 12.2851 4.26437C11.9636 4.58582 11.9591 5.10557 12.2749 5.43255L13.5891 6.75005C14.1387 7.29781 15.0278 7.29781 15.5774 6.75005L19.7558 2.57172C19.9284 2.3952 20.0122 2.15032 19.9841 1.90505C20.0145 1.71366 19.9523 1.51921 19.8166 1.38089Z" fill="currentColor"></path>
<path d="M19.2075 5.99167C18.9965 5.92542 18.7677 5.94581 18.5717 6.04836C18.3757 6.1509 18.2285 6.32717 18.1625 6.53833C17.587 8.37443 15.7152 9.47696 13.8303 9.09009C11.9454 8.70323 10.6592 6.95254 10.8534 5.03818C11.0476 3.12382 12.6592 1.6671 14.5834 1.66667C15.0436 1.66667 15.4167 1.29357 15.4167 0.833334C15.4167 0.373097 15.0436 5.11673e-07 14.5834 5.11673e-07C11.8034 -0.00119773 9.47385 2.10228 9.19224 4.86795C8.91062 7.63362 10.7684 10.1635 13.4915 10.7226C16.2147 11.2818 18.919 9.68869 19.75 7.03583C19.8878 6.59775 19.6452 6.13079 19.2075 5.99167Z" fill="currentColor"></path>
<path d="M4.58333 7.08337C2.05317 7.08613 0.00275567 9.13654 0 11.6667V14.5834C0 14.8135 0.186548 15 0.416667 15H1.925C2.03324 15.0001 2.12341 15.083 2.1325 15.1909L2.50167 19.6184C2.5199 19.8347 2.70122 20.0008 2.91833 20H6.25167C6.46878 20.0008 6.6501 19.8347 6.66833 19.6184L7.0375 15.1909C7.04659 15.083 7.13676 15.0001 7.245 15H8.75333C8.98345 15 9.17 14.8135 9.17 14.5834V11.6667C9.16724 9.13524 7.1148 7.08429 4.58333 7.08337Z" fill="currentColor"></path>
<path d="M4.58329 6.24996C6.19412 6.24996 7.49996 4.94412 7.49996 3.33329C7.49996 1.72246 6.19412 0.416626 4.58329 0.416626C2.97246 0.416626 1.66663 1.72246 1.66663 3.33329C1.66663 4.94412 2.97246 6.24996 4.58329 6.24996Z" fill="currentColor"></path>
<path d="M19.8166 1.38089C19.7301 1.29881 19.6215 1.24378 19.5041 1.22255C19.1904 1.08157 18.8223 1.14777 18.5774 1.38922L14.7308 5.23672C14.6492 5.31787 14.5174 5.31787 14.4358 5.23672L13.4533 4.25422C13.1263 3.93841 12.6065 3.94293 12.2851 4.26437C11.9636 4.58582 11.9591 5.10557 12.2749 5.43255L13.5891 6.75005C14.1387 7.29781 15.0278 7.29781 15.5774 6.75005L19.7558 2.57172C19.9284 2.3952 20.0122 2.15032 19.9841 1.90505C20.0145 1.71366 19.9523 1.51921 19.8166 1.38089Z" fill="currentColor"></path>
<path d="M19.2075 5.99167C18.9965 5.92542 18.7677 5.94581 18.5717 6.04836C18.3757 6.1509 18.2285 6.32717 18.1625 6.53833C17.587 8.37443 15.7152 9.47696 13.8303 9.09009C11.9454 8.70323 10.6592 6.95254 10.8534 5.03818C11.0476 3.12382 12.6592 1.6671 14.5834 1.66667C15.0436 1.66667 15.4167 1.29357 15.4167 0.833334C15.4167 0.373097 15.0436 5.11673e-07 14.5834 5.11673e-07C11.8034 -0.00119773 9.47385 2.10228 9.19224 4.86795C8.91062 7.63362 10.7684 10.1635 13.4915 10.7226C16.2147 11.2818 18.919 9.68869 19.75 7.03583C19.8878 6.59775 19.6452 6.13079 19.2075 5.99167Z" fill="currentColor"></path>
<path d="M4.58333 7.08337C2.05317 7.08613 0.00275567 9.13654 0 11.6667V14.5834C0 14.8135 0.186548 15 0.416667 15H1.925C2.03324 15.0001 2.12341 15.083 2.1325 15.1909L2.50167 19.6184C2.5199 19.8347 2.70122 20.0008 2.91833 20H6.25167C6.46878 20.0008 6.6501 19.8347 6.66833 19.6184L7.0375 15.1909C7.04659 15.083 7.13676 15.0001 7.245 15H8.75333C8.98345 15 9.17 14.8135 9.17 14.5834V11.6667C9.16724 9.13524 7.1148 7.08429 4.58333 7.08337Z" fill="currentColor"></path>
<path d="M4.58333 7.08337C2.05317 7.08613 0.00275567 9.13654 0 11.6667V14.5834C0 14.8135 0.186548 15 0.416667 15H1.925C2.03324 15.0001 2.12341 15.083 2.1325 15.1909L2.50167 19.6184C2.5199 19.8347 2.70122 20.0008 2.91833 20H6.25167C6.46878 20.0008 6.6501 19.8347 6.66833 19.6184L7.0375 15.1909C7.04659 15.083 7.13676 15.0001 7.245 15H8.75333C8.98345 15 9.17 14.8135 9.17 14.5834V11.6667C9.16724 9.13524 7.1148 7.08429 4.58333 7.08337Z" fill="currentColor"></path>
<path d="M19.8166 1.38089C19.7301 1.29881 19.6215 1.24378 19.5041 1.22255C19.1904 1.08157 18.8223 1.14777 18.5774 1.38922L14.7308 5.23672C14.6492 5.31787 14.5174 5.31787 14.4358 5.23672L13.4533 4.25422C13.1263 3.93841 12.6065 3.94293 12.2851 4.26437C11.9636 4.58582 11.9591 5.10557 12.2749 5.43255L13.5891 6.75005C14.1387 7.29781 15.0278 7.29781 15.5774 6.75005L19.7558 2.57172C19.9284 2.3952 20.0122 2.15032 19.9841 1.90505C20.0145 1.71366 19.9523 1.51921 19.8166 1.38089Z" fill="currentColor"></path>
<path d="M19.2075 5.99167C18.9965 5.92542 18.7677 5.94581 18.5717 6.04836C18.3757 6.1509 18.2285 6.32717 18.1625 6.53833C17.587 8.37443 15.7152 9.47696 13.8303 9.09009C11.9454 8.70323 10.6592 6.95254 10.8534 5.03818C11.0476 3.12382 12.6592 1.6671 14.5834 1.66667C15.0436 1.66667 15.4167 1.29357 15.4167 0.833334C15.4167 0.373097 15.0436 5.11673e-07 14.5834 5.11673e-07C11.8034 -0.00119773 9.47385 2.10228 9.19224 4.86795C8.91062 7.63362 10.7684 10.1635 13.4915 10.7226C16.2147 11.2818 18.919 9.68869 19.75 7.03583C19.8878 6.59775 19.6452 6.13079 19.2075 5.99167Z" fill="currentColor"></path>
</svg>