<svg style="width:20px; color:red;" fill="none" xmlns="http://www.w3.org/2000/svg" viewBox="0 0 20 20"><path fill-rule="evenodd" clip-rule="evenodd" d="M18.6577 6.34263C19.22 6.34401 19.7223 6.69155 19.9175 7.21432C20.1112 7.73785 19.9566 8.3256 19.5296 8.68866L14.9066 12.4872L16.8431 18.2482C17.0276 18.7982 16.8321 19.4032 16.3596 19.7446C15.8871 20.0859 15.2462 20.0851 14.7746 19.7425L10.0003 16.2721L5.22514 19.7407C4.75298 20.0839 4.11097 20.0844 3.63827 19.742C3.16557 19.3995 2.97107 18.793 3.15754 18.2428L5.09311 12.4854L0.480199 8.69593C0.0475037 8.33598 -0.112028 7.74626 0.0809244 7.21998C0.273877 6.69369 0.778145 6.34315 1.343 6.34263H6.7912L8.73593 0.881588C8.92641 0.355737 9.42777 0.00368445 9.99136 2.87301e-05C10.555 -0.00362699 11.0609 0.341891 11.2583 0.865226L13.2095 6.34263H18.6577ZM12.9693 12.4736C12.8498 12.1177 12.9631 11.7257 13.2544 11.4864L16.8074 8.56322C16.8821 8.50224 16.9101 8.40132 16.8775 8.31102C16.8448 8.22073 16.7584 8.16051 16.6616 8.16055H12.5585C12.1696 8.16044 11.823 7.91707 11.6939 7.55336L10.2168 3.40123C10.1846 3.31004 10.0978 3.24896 10.0004 3.24896C9.90292 3.24896 9.81613 3.31004 9.78398 3.40123L8.30594 7.55336C8.17681 7.91707 7.83026 8.16044 7.44131 8.16055H3.3382C3.24142 8.16051 3.15505 8.22073 3.12236 8.31102C3.08967 8.40132 3.1177 8.50224 3.19241 8.56322L6.74813 11.4828C7.03918 11.7222 7.15206 12.1143 7.03237 12.4699L5.61302 16.6939C5.58187 16.7877 5.61538 16.8906 5.69592 16.9487C5.77647 17.0068 5.88562 17.0067 5.96602 16.9484L9.45665 14.4097C9.77944 14.1749 10.2185 14.1749 10.5413 14.4097L14.0365 16.9529C14.1171 17.0116 14.2267 17.0117 14.3074 16.9533C14.3881 16.8949 14.4213 16.7914 14.3895 16.6975L12.9693 12.4736Z" fill="currentColor"></path>
<path fill-rule="evenodd" clip-rule="evenodd" d="M18.6577 6.34263C19.22 6.34401 19.7223 6.69155 19.9175 7.21432C20.1112 7.73785 19.9566 8.3256 19.5296 8.68866L14.9066 12.4872L16.8431 18.2482C17.0276 18.7982 16.8321 19.4032 16.3596 19.7446C15.8871 20.0859 15.2462 20.0851 14.7746 19.7425L10.0003 16.2721L5.22514 19.7407C4.75298 20.0839 4.11097 20.0844 3.63827 19.742C3.16557 19.3995 2.97107 18.793 3.15754 18.2428L5.09311 12.4854L0.480199 8.69593C0.0475037 8.33598 -0.112028 7.74626 0.0809244 7.21998C0.273877 6.69369 0.778145 6.34315 1.343 6.34263H6.7912L8.73593 0.881588C8.92641 0.355737 9.42777 0.00368445 9.99136 2.87301e-05C10.555 -0.00362699 11.0609 0.341891 11.2583 0.865226L13.2095 6.34263H18.6577ZM12.9693 12.4736C12.8498 12.1177 12.9631 11.7257 13.2544 11.4864L16.8074 8.56322C16.8821 8.50224 16.9101 8.40132 16.8775 8.31102C16.8448 8.22073 16.7584 8.16051 16.6616 8.16055H12.5585C12.1696 8.16044 11.823 7.91707 11.6939 7.55336L10.2168 3.40123C10.1846 3.31004 10.0978 3.24896 10.0004 3.24896C9.90292 3.24896 9.81613 3.31004 9.78398 3.40123L8.30594 7.55336C8.17681 7.91707 7.83026 8.16044 7.44131 8.16055H3.3382C3.24142 8.16051 3.15505 8.22073 3.12236 8.31102C3.08967 8.40132 3.1177 8.50224 3.19241 8.56322L6.74813 11.4828C7.03918 11.7222 7.15206 12.1143 7.03237 12.4699L5.61302 16.6939C5.58187 16.7877 5.61538 16.8906 5.69592 16.9487C5.77647 17.0068 5.88562 17.0067 5.96602 16.9484L9.45665 14.4097C9.77944 14.1749 10.2185 14.1749 10.5413 14.4097L14.0365 16.9529C14.1171 17.0116 14.2267 17.0117 14.3074 16.9533C14.3881 16.8949 14.4213 16.7914 14.3895 16.6975L12.9693 12.4736Z" fill="currentColor"></path>
</svg>